<?xml version="1.0" encoding="UTF-8"?>
<!DOCTYPE svg PUBLIC "-//W3C//DTD SVG 1.1//EN" "http://www.w3.org/Graphics/SVG/1.1/DTD/svg11.dtd">
<svg xmlns="http://www.w3.org/2000/svg" version="1.1" width="512px" height="512px" style="shape-rendering:geometricPrecision; text-rendering:geometricPrecision; image-rendering:optimizeQuality; fill-rule:evenodd; clip-rule:evenodd" xmlns:xlink="http://www.w3.org/1999/xlink">
<g><path style="opacity:0.223" fill="#fef6f0" d="M 226.5,185.5 C 228.641,184.837 230.975,184.503 233.5,184.5C 237.447,184.363 241.114,185.03 244.5,186.5C 238.529,185.759 232.529,185.425 226.5,185.5 Z"/></g>
<g><path style="opacity:1" fill="#feeadd" d="M 245.5,187.5 C 245.5,187.833 245.5,188.167 245.5,188.5C 238.46,191.28 233.127,195.946 229.5,202.5C 226.219,204.433 223.886,207.1 222.5,210.5C 220.533,210.739 218.699,210.406 217,209.5C 214.028,211.179 211.361,211.512 209,210.5C 208.667,211.167 208.333,211.833 208,212.5C 206.249,211.826 204.583,211.493 203,211.5C 202.302,212.691 201.469,213.691 200.5,214.5C 199.778,214.082 199.278,213.416 199,212.5C 197.562,213.9 196.729,215.567 196.5,217.5C 194.139,217.674 191.806,218.007 189.5,218.5C 191.184,215.784 192.35,212.784 193,209.5C 198.787,204.194 204.287,198.194 209.5,191.5C 215.379,189.977 221.212,188.31 227,186.5C 227.667,187.833 228.333,187.833 229,186.5C 229.667,189.167 230.333,189.167 231,186.5C 233,187.833 235,187.833 237,186.5C 237.519,187.516 238.353,188.182 239.5,188.5C 241.453,187.844 243.453,187.511 245.5,187.5 Z"/></g>
<g><path style="opacity:1" fill="#feeadc" d="M 303.5,204.5 C 303.579,206.666 304.246,208.666 305.5,210.5C 305.32,211.554 304.987,212.554 304.5,213.5C 308.089,215.883 310.089,219.216 310.5,223.5C 307.569,221.751 304.735,219.751 302,217.5C 299.654,217.01 297.487,216.343 295.5,215.5C 289.871,213.062 283.871,212.062 277.5,212.5C 276.833,211.5 276.167,210.5 275.5,209.5C 274.028,206.444 272.361,203.444 270.5,200.5C 268.352,198.485 266.019,196.818 263.5,195.5C 261.115,194.708 259.115,193.374 257.5,191.5C 257.423,190.25 256.756,189.417 255.5,189C 252.183,188.502 248.85,188.335 245.5,188.5C 245.5,188.167 245.5,187.833 245.5,187.5C 260.794,184.772 275.461,186.605 289.5,193C 294.381,196.603 299.048,200.436 303.5,204.5 Z"/></g>
<g><path style="opacity:1" fill="#fedbc3" d="M 257.5,191.5 C 259.115,193.374 261.115,194.708 263.5,195.5C 266.092,199.689 268.925,203.689 272,207.5C 273.113,208.305 274.279,208.972 275.5,209.5C 276.167,210.5 276.833,211.5 277.5,212.5C 277.5,212.833 277.5,213.167 277.5,213.5C 277.167,213.5 276.833,213.5 276.5,213.5C 275.251,212.222 273.751,211.222 272,210.5C 267.312,212.683 262.646,215.016 258,217.5C 256.657,216.786 255.324,217.12 254,218.5C 253.195,216.099 252.362,216.266 251.5,219C 252.369,220.465 251.869,221.631 250,222.5C 246.575,221.409 244.075,219.242 242.5,216C 239.379,214.392 236.046,213.559 232.5,213.5C 230.304,213.41 228.137,213.077 226,212.5C 224.159,213.562 222.326,214.562 220.5,215.5C 220.557,214.391 220.89,213.391 221.5,212.5C 225.198,209.986 227.864,206.653 229.5,202.5C 232.062,199.777 235.062,197.611 238.5,196C 239.337,194.989 239.67,193.822 239.5,192.5C 243.436,191.891 247.269,190.891 251,189.5C 253.226,190.033 255.393,190.7 257.5,191.5 Z"/></g>
<g><path style="opacity:0.953" fill="#fcf0e7" d="M 303.5,204.5 C 299.048,200.436 294.381,196.603 289.5,193C 275.461,186.605 260.794,184.772 245.5,187.5C 243.453,187.511 241.453,187.844 239.5,188.5C 238.353,188.182 237.519,187.516 237,186.5C 235,187.833 233,187.833 231,186.5C 230.333,189.167 229.667,189.167 229,186.5C 228.333,187.833 227.667,187.833 227,186.5C 221.212,188.31 215.379,189.977 209.5,191.5C 214.403,187.558 220.07,185.558 226.5,185.5C 232.529,185.425 238.529,185.759 244.5,186.5C 267.25,180.432 286.75,185.766 303,202.5C 303.464,203.094 303.631,203.761 303.5,204.5 Z"/></g>
<g><path style="opacity:1" fill="#fde2cf" d="M 245.5,188.5 C 248.85,188.335 252.183,188.502 255.5,189C 256.756,189.417 257.423,190.25 257.5,191.5C 255.393,190.7 253.226,190.033 251,189.5C 247.269,190.891 243.436,191.891 239.5,192.5C 239.67,193.822 239.337,194.989 238.5,196C 235.062,197.611 232.062,199.777 229.5,202.5C 233.127,195.946 238.46,191.28 245.5,188.5 Z"/></g>
<g><path style="opacity:1" fill="#fde0ce" d="M 263.5,195.5 C 266.019,196.818 268.352,198.485 270.5,200.5C 272.361,203.444 274.028,206.444 275.5,209.5C 274.279,208.972 273.113,208.305 272,207.5C 268.925,203.689 266.092,199.689 263.5,195.5 Z"/></g>
<g><path style="opacity:1" fill="#fceee5" d="M 303.5,204.5 C 308.352,209.875 311.352,216.208 312.5,223.5C 312.167,223.5 311.833,223.5 311.5,223.5C 311.167,223.5 310.833,223.5 310.5,223.5C 310.089,219.216 308.089,215.883 304.5,213.5C 304.987,212.554 305.32,211.554 305.5,210.5C 304.246,208.666 303.579,206.666 303.5,204.5 Z"/></g>
<g><path style="opacity:1" fill="#fee7d5" d="M 229.5,202.5 C 227.864,206.653 225.198,209.986 221.5,212.5C 218.061,212.253 214.728,212.586 211.5,213.5C 207.785,213.423 204.119,213.756 200.5,214.5C 201.469,213.691 202.302,212.691 203,211.5C 204.583,211.493 206.249,211.826 208,212.5C 208.333,211.833 208.667,211.167 209,210.5C 211.361,211.512 214.028,211.179 217,209.5C 218.699,210.406 220.533,210.739 222.5,210.5C 223.886,207.1 226.219,204.433 229.5,202.5 Z"/></g>
<g><path style="opacity:1" fill="#fedbc3" d="M 221.5,212.5 C 220.89,213.391 220.557,214.391 220.5,215.5C 220.198,218.373 219.531,221.039 218.5,223.5C 217.883,223.611 217.383,223.944 217,224.5C 215.823,229.178 215.657,233.845 216.5,238.5C 216.281,239.938 215.781,241.271 215,242.5C 212.618,243.554 210.118,244.221 207.5,244.5C 207.5,245.5 207.5,246.5 207.5,247.5C 206.251,249.136 204.584,250.303 202.5,251C 201.117,252.271 200.117,253.771 199.5,255.5C 197.05,255.874 196.05,257.374 196.5,260C 197.603,262.938 198.936,265.771 200.5,268.5C 198.536,267.218 196.536,265.885 194.5,264.5C 195.754,262.357 195.754,260.357 194.5,258.5C 192.032,253.064 189.699,247.564 187.5,242C 188.26,240.559 188.926,239.059 189.5,237.5C 186.086,231.514 186.752,225.681 191.5,220C 198.35,217.881 205.017,215.714 211.5,213.5C 214.728,212.586 218.061,212.253 221.5,212.5 Z"/></g>
<g><path style="opacity:1" fill="#fedbc3" d="M 276.5,213.5 C 276.833,213.5 277.167,213.5 277.5,213.5C 283.436,215.483 289.436,216.15 295.5,215.5C 297.487,216.343 299.654,217.01 302,217.5C 304.735,219.751 307.569,221.751 310.5,223.5C 310.833,223.5 311.167,223.5 311.5,223.5C 312.931,231.192 312.765,238.859 311,246.5C 309.862,251.443 307.695,255.776 304.5,259.5C 304.5,258.833 304.167,258.5 303.5,258.5C 297.354,252.993 291.021,247.993 284.5,243.5C 283.53,234.918 283.197,226.251 283.5,217.5C 282.041,217.567 280.708,217.234 279.5,216.5C 278.5,215.833 277.5,215.167 276.5,214.5C 276.5,214.167 276.5,213.833 276.5,213.5 Z"/></g>
<g><path style="opacity:1" fill="#fde0cd" d="M 277.5,213.5 C 277.5,213.167 277.5,212.833 277.5,212.5C 283.871,212.062 289.871,213.062 295.5,215.5C 289.436,216.15 283.436,215.483 277.5,213.5 Z"/></g>
<g><path style="opacity:1" fill="#fdd0b1" d="M 232.5,213.5 C 236.857,216.312 241.191,219.312 245.5,222.5C 246.772,223.046 248.106,223.379 249.5,223.5C 254.086,220.911 258.753,218.411 263.5,216C 267.79,215.077 272.123,214.577 276.5,214.5C 277.5,215.167 278.5,215.833 279.5,216.5C 280.579,225.467 281.246,234.467 281.5,243.5C 280.833,243.167 280.167,242.833 279.5,242.5C 278.247,235.848 276.913,229.182 275.5,222.5C 276.52,215.322 274.52,214.155 269.5,219C 264.865,219.611 260.532,220.278 256.5,221C 255.72,222.073 255.887,223.24 257,224.5C 257.914,223.346 258.747,223.513 259.5,225C 254.245,226.047 249.245,225.547 244.5,223.5C 239.923,228.945 238.923,228.445 241.5,222C 240.991,220.831 240.158,219.998 239,219.5C 237.704,220.068 236.204,220.068 234.5,219.5C 231.828,218.164 229.162,216.831 226.5,215.5C 225.558,215.608 224.725,215.941 224,216.5C 223.506,218.134 223.34,219.801 223.5,221.5C 224.978,221.238 226.311,221.571 227.5,222.5C 225.257,223.474 222.924,223.808 220.5,223.5C 220.666,229.176 220.499,234.843 220,240.5C 219.722,241.416 219.222,242.082 218.5,242.5C 218.5,236.167 218.5,229.833 218.5,223.5C 219.531,221.039 220.198,218.373 220.5,215.5C 222.326,214.562 224.159,213.562 226,212.5C 228.137,213.077 230.304,213.41 232.5,213.5 Z"/></g>
<g><path style="opacity:1" fill="#feceac" d="M 279.5,242.5 C 273.78,240.059 267.78,239.059 261.5,239.5C 260.504,239.586 259.671,239.252 259,238.5C 257.698,235.046 256.198,231.712 254.5,228.5C 252.618,227.907 250.785,227.24 249,226.5C 245.204,230.449 242.037,234.783 239.5,239.5C 238.167,239.833 236.833,240.167 235.5,240.5C 232.166,240.786 229,240.786 226,240.5C 223.192,241.373 221.025,243.039 219.5,245.5C 221.31,249.322 222.644,253.322 223.5,257.5C 222.96,261.241 220.96,263.908 217.5,265.5C 216.808,264.975 216.308,264.308 216,263.5C 215.971,266.326 215.805,268.993 215.5,271.5C 214.13,268.664 212.297,265.997 210,263.5C 209.228,263.645 208.561,263.978 208,264.5C 207.998,267.051 207.164,269.051 205.5,270.5C 205.649,269.448 205.483,268.448 205,267.5C 200.106,264.723 198.273,260.723 199.5,255.5C 200.117,253.771 201.117,252.271 202.5,251C 204.584,250.303 206.251,249.136 207.5,247.5C 211.251,246.027 214.917,244.36 218.5,242.5C 219.222,242.082 219.722,241.416 220,240.5C 220.499,234.843 220.666,229.176 220.5,223.5C 222.924,223.808 225.257,223.474 227.5,222.5C 226.311,221.571 224.978,221.238 223.5,221.5C 223.34,219.801 223.506,218.134 224,216.5C 224.725,215.941 225.558,215.608 226.5,215.5C 229.162,216.831 231.828,218.164 234.5,219.5C 236.204,220.068 237.704,220.068 239,219.5C 240.158,219.998 240.991,220.831 241.5,222C 238.923,228.445 239.923,228.945 244.5,223.5C 249.245,225.547 254.245,226.047 259.5,225C 258.747,223.513 257.914,223.346 257,224.5C 255.887,223.24 255.72,222.073 256.5,221C 260.532,220.278 264.865,219.611 269.5,219C 274.52,214.155 276.52,215.322 275.5,222.5C 276.913,229.182 278.247,235.848 279.5,242.5 Z"/></g>
<g><path style="opacity:1" fill="#fed8bc" d="M 276.5,213.5 C 276.5,213.833 276.5,214.167 276.5,214.5C 272.123,214.577 267.79,215.077 263.5,216C 258.753,218.411 254.086,220.911 249.5,223.5C 248.106,223.379 246.772,223.046 245.5,222.5C 241.191,219.312 236.857,216.312 232.5,213.5C 236.046,213.559 239.379,214.392 242.5,216C 244.075,219.242 246.575,221.409 250,222.5C 251.869,221.631 252.369,220.465 251.5,219C 252.362,216.266 253.195,216.099 254,218.5C 255.324,217.12 256.657,216.786 258,217.5C 262.646,215.016 267.312,212.683 272,210.5C 273.751,211.222 275.251,212.222 276.5,213.5 Z"/></g>
<g><path style="opacity:1" fill="#ffd8bc" d="M 279.5,216.5 C 280.708,217.234 282.041,217.567 283.5,217.5C 283.197,226.251 283.53,234.918 284.5,243.5C 283.5,243.5 282.5,243.5 281.5,243.5C 281.246,234.467 280.579,225.467 279.5,216.5 Z"/></g>
<g><path style="opacity:1" fill="#fdf0e8" d="M 313.5,225.5 C 318.042,228.923 321.375,233.257 323.5,238.5C 322.542,238.047 321.708,237.381 321,236.5C 320.667,237.167 320.333,237.833 320,238.5C 319.968,234.098 318.135,230.764 314.5,228.5C 313.89,227.609 313.557,226.609 313.5,225.5 Z"/></g>
<g><path style="opacity:1" fill="#feeadd" d="M 314.5,228.5 C 318.135,230.764 319.968,234.098 320,238.5C 320.333,237.833 320.667,237.167 321,236.5C 321.708,237.381 322.542,238.047 323.5,238.5C 325.35,246.751 326.684,255.084 327.5,263.5C 327.496,267.569 326.996,271.569 326,275.5C 323.425,278.726 321.925,282.393 321.5,286.5C 321.5,286.833 321.5,287.167 321.5,287.5C 317.592,289.07 314.592,291.737 312.5,295.5C 313.834,283.171 311.834,271.504 306.5,260.5C 308.167,258.167 309.833,255.833 311.5,253.5C 313.482,245.279 314.482,236.946 314.5,228.5 Z"/></g>
<g><path style="opacity:1" fill="#feeadd" d="M 186.5,225.5 C 185.078,235.966 186.578,245.966 191,255.5C 191.497,258.146 191.664,260.813 191.5,263.5C 189.957,265.928 188.957,268.594 188.5,271.5C 186.932,273.811 186.098,276.478 186,279.5C 185.501,283.821 185.334,288.154 185.5,292.5C 183.833,291.833 182.167,291.167 180.5,290.5C 181.337,286.16 179.67,283.493 175.5,282.5C 171.335,267.793 171.502,253.126 176,238.5C 177.512,236.043 178.846,236.043 180,238.5C 180.333,238.167 180.667,237.833 181,237.5C 179.804,232.218 181.638,228.218 186.5,225.5 Z"/></g>
<g><path style="opacity:1" fill="#fecca9" d="M 261.5,239.5 C 267.78,239.059 273.78,240.059 279.5,242.5C 280.167,242.833 280.833,243.167 281.5,243.5C 282.598,244.397 282.598,245.23 281.5,246C 282.416,246.278 283.082,246.778 283.5,247.5C 283.721,248.735 284.388,249.735 285.5,250.5C 281.903,252.1 278.903,254.433 276.5,257.5C 277.051,260.056 278.051,262.389 279.5,264.5C 278.638,267.146 278.805,269.813 280,272.5C 280.893,271.289 281.726,271.289 282.5,272.5C 280.914,274.173 280.247,276.173 280.5,278.5C 279.833,278.5 279.5,278.833 279.5,279.5C 278.5,279.5 277.5,279.5 276.5,279.5C 277.476,278.185 278.476,276.852 279.5,275.5C 276.456,269.583 274.123,263.416 272.5,257C 278.212,254.633 280.379,250.467 279,244.5C 277.829,243.107 276.329,242.273 274.5,242C 270.035,241.126 265.702,240.293 261.5,239.5 Z"/></g>
<g><path style="opacity:1" fill="#fde2cf" d="M 200.5,214.5 C 204.119,213.756 207.785,213.423 211.5,213.5C 205.017,215.714 198.35,217.881 191.5,220C 186.752,225.681 186.086,231.514 189.5,237.5C 188.926,239.059 188.26,240.559 187.5,242C 189.699,247.564 192.032,253.064 194.5,258.5C 194.741,261.034 193.741,262.7 191.5,263.5C 191.664,260.813 191.497,258.146 191,255.5C 186.578,245.966 185.078,235.966 186.5,225.5C 187.989,223.355 188.989,221.022 189.5,218.5C 191.806,218.007 194.139,217.674 196.5,217.5C 196.729,215.567 197.562,213.9 199,212.5C 199.278,213.416 199.778,214.082 200.5,214.5 Z"/></g>
<g><path style="opacity:1" fill="#fed8bc" d="M 218.5,223.5 C 218.5,229.833 218.5,236.167 218.5,242.5C 214.917,244.36 211.251,246.027 207.5,247.5C 207.5,246.5 207.5,245.5 207.5,244.5C 210.118,244.221 212.618,243.554 215,242.5C 215.781,241.271 216.281,239.938 216.5,238.5C 215.657,233.845 215.823,229.178 217,224.5C 217.383,223.944 217.883,223.611 218.5,223.5 Z"/></g>
<g><path style="opacity:1" fill="#fde5d2" d="M 311.5,223.5 C 311.833,223.5 312.167,223.5 312.5,223.5C 313.338,223.842 313.672,224.508 313.5,225.5C 313.557,226.609 313.89,227.609 314.5,228.5C 314.482,236.946 313.482,245.279 311.5,253.5C 309.833,255.833 308.167,258.167 306.5,260.5C 311.834,271.504 313.834,283.171 312.5,295.5C 312.5,296.167 312.5,296.833 312.5,297.5C 312.5,297.833 312.5,298.167 312.5,298.5C 311.508,298.328 310.842,298.662 310.5,299.5C 307.533,301.836 305.367,304.836 304,308.5C 303.085,307.672 302.419,306.672 302,305.5C 298.6,306.54 295.1,307.206 291.5,307.5C 295.738,304.805 300.405,302.972 305.5,302C 307.333,300.167 309.167,298.333 311,296.5C 311.667,290.833 311.667,285.167 311,279.5C 309.683,278.32 309.516,276.82 310.5,275C 309.03,272.185 307.53,269.351 306,266.5C 305.023,264.26 304.523,261.927 304.5,259.5C 307.695,255.776 309.862,251.443 311,246.5C 312.765,238.859 312.931,231.192 311.5,223.5 Z"/></g>
<g><path style="opacity:1" fill="#fcd0b1" d="M 281.5,243.5 C 282.5,243.5 283.5,243.5 284.5,243.5C 291.021,247.993 297.354,252.993 303.5,258.5C 303.923,260.781 303.256,262.448 301.5,263.5C 301.116,261.071 300.449,258.737 299.5,256.5C 295.925,256.548 293.591,254.881 292.5,251.5C 289.463,250.098 286.463,248.765 283.5,247.5C 283.082,246.778 282.416,246.278 281.5,246C 282.598,245.23 282.598,244.397 281.5,243.5 Z"/></g>
<g><path style="opacity:1" fill="#fcefe5" d="M 209.5,191.5 C 204.287,198.194 198.787,204.194 193,209.5C 192.35,212.784 191.184,215.784 189.5,218.5C 188.989,221.022 187.989,223.355 186.5,225.5C 181.638,228.218 179.804,232.218 181,237.5C 180.667,237.833 180.333,238.167 180,238.5C 178.846,236.043 177.512,236.043 176,238.5C 171.502,253.126 171.335,267.793 175.5,282.5C 172.459,278.044 170.792,273.044 170.5,267.5C 170.612,260.82 170.946,254.153 171.5,247.5C 174.017,238.137 178.851,230.137 186,223.5C 189.516,209.508 197.35,198.841 209.5,191.5 Z"/></g>
<g><path style="opacity:0.505" fill="#fef6ef" d="M 171.5,247.5 C 170.946,254.153 170.612,260.82 170.5,267.5C 169.836,265.19 169.503,262.69 169.5,260C 169.394,255.573 170.06,251.406 171.5,247.5 Z"/></g>
<g><path style="opacity:1" fill="#fdd0b2" d="M 199.5,255.5 C 198.273,260.723 200.106,264.723 205,267.5C 205.483,268.448 205.649,269.448 205.5,270.5C 204.18,269.058 202.514,268.392 200.5,268.5C 198.936,265.771 197.603,262.938 196.5,260C 196.05,257.374 197.05,255.874 199.5,255.5 Z"/></g>
<g><path style="opacity:1" fill="#fecfad" d="M 283.5,247.5 C 286.463,248.765 289.463,250.098 292.5,251.5C 293.591,254.881 295.925,256.548 299.5,256.5C 300.449,258.737 301.116,261.071 301.5,263.5C 299.589,263.574 298.422,264.574 298,266.5C 297.586,266.043 297.086,265.709 296.5,265.5C 293.757,270.044 289.757,272.877 284.5,274C 282.859,275.129 281.859,276.629 281.5,278.5C 281.167,278.5 280.833,278.5 280.5,278.5C 280.247,276.173 280.914,274.173 282.5,272.5C 281.726,271.289 280.893,271.289 280,272.5C 278.805,269.813 278.638,267.146 279.5,264.5C 278.051,262.389 277.051,260.056 276.5,257.5C 278.903,254.433 281.903,252.1 285.5,250.5C 284.388,249.735 283.721,248.735 283.5,247.5 Z"/></g>
<g><path style="opacity:1" fill="#fec59e" d="M 261.5,239.5 C 265.702,240.293 270.035,241.126 274.5,242C 276.329,242.273 277.829,243.107 279,244.5C 280.379,250.467 278.212,254.633 272.5,257C 274.123,263.416 276.456,269.583 279.5,275.5C 278.476,276.852 277.476,278.185 276.5,279.5C 276.167,279.5 275.833,279.5 275.5,279.5C 270.518,279.141 265.518,279.641 260.5,281C 258.936,283.971 257.27,286.804 255.5,289.5C 253.837,291.49 251.837,293.157 249.5,294.5C 247.742,293.872 246.242,292.872 245,291.5C 242.044,288.532 239.878,285.032 238.5,281C 232.37,280.274 226.036,279.441 219.5,278.5C 219.933,275.834 220.433,273.168 221,270.5C 223.385,267.426 224.885,263.926 225.5,260C 225.316,258.624 224.649,257.791 223.5,257.5C 222.644,253.322 221.31,249.322 219.5,245.5C 221.025,243.039 223.192,241.373 226,240.5C 229,240.786 232.166,240.786 235.5,240.5C 235.167,242.5 234.833,244.5 234.5,246.5C 232.408,246.561 230.908,247.561 230,249.5C 228.232,254.429 226.732,259.429 225.5,264.5C 229.689,268.945 233.356,273.611 236.5,278.5C 240.814,279.829 245.148,279.829 249.5,278.5C 254.424,281.149 258.924,280.483 263,276.5C 263.494,274.866 263.66,273.199 263.5,271.5C 266.439,268.542 269.105,265.209 271.5,261.5C 269.413,256.99 267.08,252.657 264.5,248.5C 262.676,240.286 258.009,238.286 250.5,242.5C 246.669,241.973 243.002,241.306 239.5,240.5C 239.5,240.167 239.5,239.833 239.5,239.5C 242.037,234.783 245.204,230.449 249,226.5C 250.785,227.24 252.618,227.907 254.5,228.5C 256.198,231.712 257.698,235.046 259,238.5C 259.671,239.252 260.504,239.586 261.5,239.5 Z"/></g>
<g><path style="opacity:1" fill="#feb784" d="M 251.5,277.5 C 250.167,277.5 248.833,277.5 247.5,277.5C 245.04,276.109 242.374,274.942 239.5,274C 237.754,272.153 236.088,270.319 234.5,268.5C 231.864,260.054 233.53,252.721 239.5,246.5C 248.802,242.699 256.969,244.365 264,251.5C 265.631,257.211 265.631,262.878 264,268.5C 262.011,270.324 260.177,272.324 258.5,274.5C 256.003,275.701 253.669,276.701 251.5,277.5 Z"/></g>
<g><path style="opacity:1" fill="#febd91" d="M 239.5,240.5 C 243.002,241.306 246.669,241.973 250.5,242.5C 258.009,238.286 262.676,240.286 264.5,248.5C 263.5,248.5 262.5,248.5 261.5,248.5C 260.802,245.788 259.468,243.454 257.5,241.5C 256.692,241.808 256.025,242.308 255.5,243C 250.167,243.333 244.833,243.667 239.5,244C 238.402,244.77 238.402,245.603 239.5,246.5C 233.53,252.721 231.864,260.054 234.5,268.5C 233.504,268.586 232.671,268.252 232,267.5C 230.267,265.277 228.767,262.944 227.5,260.5C 232.04,254.074 236.04,247.407 239.5,240.5 Z"/></g>
<g><path style="opacity:1" fill="#febc8e" d="M 264.5,248.5 C 267.08,252.657 269.413,256.99 271.5,261.5C 269.105,265.209 266.439,268.542 263.5,271.5C 261.381,272.986 259.881,274.986 259,277.5C 256.893,278.591 254.393,278.591 251.5,277.5C 253.669,276.701 256.003,275.701 258.5,274.5C 260.177,272.324 262.011,270.324 264,268.5C 265.631,262.878 265.631,257.211 264,251.5C 256.969,244.365 248.802,242.699 239.5,246.5C 238.402,245.603 238.402,244.77 239.5,244C 244.833,243.667 250.167,243.333 255.5,243C 256.025,242.308 256.692,241.808 257.5,241.5C 259.468,243.454 260.802,245.788 261.5,248.5C 262.5,248.5 263.5,248.5 264.5,248.5 Z"/></g>
<g><path style="opacity:1" fill="#fec499" d="M 239.5,239.5 C 239.5,239.833 239.5,240.167 239.5,240.5C 236.04,247.407 232.04,254.074 227.5,260.5C 228.767,262.944 230.267,265.277 232,267.5C 232.671,268.252 233.504,268.586 234.5,268.5C 234.294,271.495 234.96,274.162 236.5,276.5C 236.5,277.167 236.5,277.833 236.5,278.5C 233.356,273.611 229.689,268.945 225.5,264.5C 226.732,259.429 228.232,254.429 230,249.5C 230.908,247.561 232.408,246.561 234.5,246.5C 234.833,244.5 235.167,242.5 235.5,240.5C 236.833,240.167 238.167,239.833 239.5,239.5 Z"/></g>
<g><path style="opacity:1" fill="#fedcc3" d="M 194.5,258.5 C 195.754,260.357 195.754,262.357 194.5,264.5C 196.536,265.885 198.536,267.218 200.5,268.5C 205.194,272.7 210.527,276.2 216.5,279C 216.238,287.354 216.238,295.688 216.5,304C 217.745,304.791 219.078,305.291 220.5,305.5C 221.5,305.833 222.167,306.5 222.5,307.5C 222.167,307.5 221.833,307.5 221.5,307.5C 220.833,307.5 220.167,307.5 219.5,307.5C 212.765,307.038 206.098,305.705 199.5,303.5C 199.167,303.5 198.833,303.5 198.5,303.5C 195.539,300.9 192.372,298.566 189,296.5C 187.106,291.986 186.44,287.32 187,282.5C 188.018,283.706 188.518,283.373 188.5,281.5C 187.49,278.187 187.49,274.854 188.5,271.5C 188.957,268.594 189.957,265.928 191.5,263.5C 193.741,262.7 194.741,261.034 194.5,258.5 Z"/></g>
<g><path style="opacity:1" fill="#fedbc3" d="M 303.5,258.5 C 304.167,258.5 304.5,258.833 304.5,259.5C 304.523,261.927 305.023,264.26 306,266.5C 307.53,269.351 309.03,272.185 310.5,275C 309.516,276.82 309.683,278.32 311,279.5C 311.667,285.167 311.667,290.833 311,296.5C 309.167,298.333 307.333,300.167 305.5,302C 300.405,302.972 295.738,304.805 291.5,307.5C 290.833,307.5 290.167,307.5 289.5,307.5C 285.996,307.073 282.329,307.073 278.5,307.5C 281.113,301.167 282.447,294.501 282.5,287.5C 283.5,287.5 284.5,287.5 285.5,287.5C 284.224,284.664 283.558,281.664 283.5,278.5C 287.1,275.357 291.1,272.691 295.5,270.5C 298.213,268.786 300.213,266.453 301.5,263.5C 303.256,262.448 303.923,260.781 303.5,258.5 Z"/></g>
<g><path style="opacity:1" fill="#fdd0b2" d="M 301.5,263.5 C 300.213,266.453 298.213,268.786 295.5,270.5C 291.1,272.691 287.1,275.357 283.5,278.5C 282.833,278.5 282.167,278.5 281.5,278.5C 281.859,276.629 282.859,275.129 284.5,274C 289.757,272.877 293.757,270.044 296.5,265.5C 297.086,265.709 297.586,266.043 298,266.5C 298.422,264.574 299.589,263.574 301.5,263.5 Z"/></g>
<g><path style="opacity:1" fill="#febd8d" d="M 234.5,268.5 C 236.088,270.319 237.754,272.153 239.5,274C 242.374,274.942 245.04,276.109 247.5,277.5C 245.856,277.286 244.356,277.62 243,278.5C 242.333,275.833 241.667,275.833 241,278.5C 239.67,277.418 238.17,276.751 236.5,276.5C 234.96,274.162 234.294,271.495 234.5,268.5 Z"/></g>
<g><path style="opacity:1" fill="#fdbe92" d="M 263.5,271.5 C 263.66,273.199 263.494,274.866 263,276.5C 258.924,280.483 254.424,281.149 249.5,278.5C 245.148,279.829 240.814,279.829 236.5,278.5C 236.5,277.833 236.5,277.167 236.5,276.5C 238.17,276.751 239.67,277.418 241,278.5C 241.667,275.833 242.333,275.833 243,278.5C 244.356,277.62 245.856,277.286 247.5,277.5C 248.833,277.5 250.167,277.5 251.5,277.5C 254.393,278.591 256.893,278.591 259,277.5C 259.881,274.986 261.381,272.986 263.5,271.5 Z"/></g>
<g><path style="opacity:1" fill="#fdcfb0" d="M 280.5,278.5 C 280.666,285.508 280.5,292.508 280,299.5C 279.498,302.488 278.331,305.155 276.5,307.5C 273.287,307.81 270.287,307.477 267.5,306.5C 270.247,306.813 272.914,306.48 275.5,305.5C 278.263,299.786 279.43,293.786 279,287.5C 277.333,286.167 275.667,286.167 274,287.5C 273.829,292.533 273.329,297.533 272.5,302.5C 271.516,299.572 271.183,296.572 271.5,293.5C 269.5,293.5 267.5,293.5 265.5,293.5C 265.917,290.921 265.25,288.754 263.5,287C 265.527,286.502 267.527,286.669 269.5,287.5C 274.345,286.649 277.678,283.982 279.5,279.5C 279.5,278.833 279.833,278.5 280.5,278.5 Z"/></g>
<g><path style="opacity:1" fill="#fdcfb1" d="M 215.5,271.5 C 217.172,274.198 218.339,277.198 219,280.5C 219.333,280.167 219.667,279.833 220,279.5C 220.333,281.167 220.667,282.833 221,284.5C 221.414,284.957 221.914,285.291 222.5,285.5C 223.842,283.995 225.508,283.328 227.5,283.5C 227.721,284.735 228.388,285.735 229.5,286.5C 226.591,287.177 223.758,287.511 221,287.5C 220.211,293.237 220.544,298.903 222,304.5C 222.804,305.804 223.971,306.471 225.5,306.5C 229.886,304.149 234.552,302.815 239.5,302.5C 234.624,305.346 229.291,307.013 223.5,307.5C 223.167,307.5 222.833,307.5 222.5,307.5C 222.167,306.5 221.5,305.833 220.5,305.5C 218.21,296.338 216.877,287.004 216.5,277.5C 212.599,275.392 208.933,273.059 205.5,270.5C 207.164,269.051 207.998,267.051 208,264.5C 208.561,263.978 209.228,263.645 210,263.5C 212.297,265.997 214.13,268.664 215.5,271.5 Z"/></g>
<g><path style="opacity:1" fill="#feccaa" d="M 223.5,257.5 C 224.649,257.791 225.316,258.624 225.5,260C 224.885,263.926 223.385,267.426 221,270.5C 220.433,273.168 219.933,275.834 219.5,278.5C 226.036,279.441 232.37,280.274 238.5,281C 239.878,285.032 242.044,288.532 245,291.5C 246.242,292.872 247.742,293.872 249.5,294.5C 251.837,293.157 253.837,291.49 255.5,289.5C 254.98,291.949 254.647,294.282 254.5,296.5C 251.833,296.5 249.167,296.5 246.5,296.5C 243.853,295.042 241.687,295.708 240,298.5C 239.833,297.667 239.667,296.833 239.5,296C 240.502,293.999 241.502,291.999 242.5,290C 240.189,288.355 238.189,286.355 236.5,284C 233.907,283.463 231.407,282.63 229,281.5C 226.046,281.594 225.879,282.094 228.5,283C 228.272,283.399 227.938,283.565 227.5,283.5C 225.508,283.328 223.842,283.995 222.5,285.5C 221.914,285.291 221.414,284.957 221,284.5C 220.667,282.833 220.333,281.167 220,279.5C 219.667,279.833 219.333,280.167 219,280.5C 218.339,277.198 217.172,274.198 215.5,271.5C 215.805,268.993 215.971,266.326 216,263.5C 216.308,264.308 216.808,264.975 217.5,265.5C 220.96,263.908 222.96,261.241 223.5,257.5 Z"/></g>
<g><path style="opacity:1" fill="#fecaa5" d="M 275.5,279.5 C 275.389,280.117 275.056,280.617 274.5,281C 270.129,281.172 265.796,281.672 261.5,282.5C 260.192,285.464 258.192,287.797 255.5,289.5C 257.27,286.804 258.936,283.971 260.5,281C 265.518,279.641 270.518,279.141 275.5,279.5 Z"/></g>
<g><path style="opacity:1" fill="#feceac" d="M 246.5,296.5 C 242.646,296.839 240.313,298.839 239.5,302.5C 234.552,302.815 229.886,304.149 225.5,306.5C 223.971,306.471 222.804,305.804 222,304.5C 220.544,298.903 220.211,293.237 221,287.5C 223.758,287.511 226.591,287.177 229.5,286.5C 228.388,285.735 227.721,284.735 227.5,283.5C 227.938,283.565 228.272,283.399 228.5,283C 225.879,282.094 226.046,281.594 229,281.5C 231.407,282.63 233.907,283.463 236.5,284C 238.189,286.355 240.189,288.355 242.5,290C 241.502,291.999 240.502,293.999 239.5,296C 239.667,296.833 239.833,297.667 240,298.5C 241.687,295.708 243.853,295.042 246.5,296.5 Z"/></g>
<g><path style="opacity:1" fill="#fcf2e9" d="M 323.5,238.5 C 329.929,250.548 331.095,263.215 327,276.5C 325.914,280.346 324.081,283.68 321.5,286.5C 321.925,282.393 323.425,278.726 326,275.5C 326.996,271.569 327.496,267.569 327.5,263.5C 326.684,255.084 325.35,246.751 323.5,238.5 Z"/></g>
<g><path style="opacity:1" fill="#feceac" d="M 275.5,279.5 C 275.833,279.5 276.167,279.5 276.5,279.5C 277.5,279.5 278.5,279.5 279.5,279.5C 277.678,283.982 274.345,286.649 269.5,287.5C 267.527,286.669 265.527,286.502 263.5,287C 265.25,288.754 265.917,290.921 265.5,293.5C 267.5,293.5 269.5,293.5 271.5,293.5C 271.183,296.572 271.516,299.572 272.5,302.5C 273.329,297.533 273.829,292.533 274,287.5C 275.667,286.167 277.333,286.167 279,287.5C 279.43,293.786 278.263,299.786 275.5,305.5C 272.914,306.48 270.247,306.813 267.5,306.5C 267.5,305.833 267.167,305.5 266.5,305.5C 265.594,304.035 264.261,303.035 262.5,302.5C 261.548,300.955 261.215,299.288 261.5,297.5C 258.941,297.802 256.607,297.468 254.5,296.5C 254.647,294.282 254.98,291.949 255.5,289.5C 258.192,287.797 260.192,285.464 261.5,282.5C 265.796,281.672 270.129,281.172 274.5,281C 275.056,280.617 275.389,280.117 275.5,279.5 Z"/></g>
<g><path style="opacity:0.967" fill="#fbf1e7" d="M 175.5,282.5 C 179.67,283.493 181.337,286.16 180.5,290.5C 178.05,288.371 176.383,285.704 175.5,282.5 Z"/></g>
<g><path style="opacity:1" fill="#fde0cc" d="M 188.5,271.5 C 187.49,274.854 187.49,278.187 188.5,281.5C 188.518,283.373 188.018,283.706 187,282.5C 186.44,287.32 187.106,291.986 189,296.5C 192.372,298.566 195.539,300.9 198.5,303.5C 195.166,302.166 191.833,300.833 188.5,299.5C 187.651,297.112 186.651,294.779 185.5,292.5C 185.334,288.154 185.501,283.821 186,279.5C 186.098,276.478 186.932,273.811 188.5,271.5 Z"/></g>
<g><path style="opacity:0.349" fill="#fdf3eb" d="M 321.5,287.5 C 318.959,291.252 315.959,294.585 312.5,297.5C 312.5,296.833 312.5,296.167 312.5,295.5C 314.592,291.737 317.592,289.07 321.5,287.5 Z"/></g>
<g><path style="opacity:1" fill="#fed8bc" d="M 200.5,268.5 C 202.514,268.392 204.18,269.058 205.5,270.5C 208.933,273.059 212.599,275.392 216.5,277.5C 216.877,287.004 218.21,296.338 220.5,305.5C 219.078,305.291 217.745,304.791 216.5,304C 216.238,295.688 216.238,287.354 216.5,279C 210.527,276.2 205.194,272.7 200.5,268.5 Z"/></g>
<g><path style="opacity:1" fill="#fed9bd" d="M 280.5,278.5 C 280.833,278.5 281.167,278.5 281.5,278.5C 282.167,278.5 282.833,278.5 283.5,278.5C 283.558,281.664 284.224,284.664 285.5,287.5C 284.5,287.5 283.5,287.5 282.5,287.5C 282.447,294.501 281.113,301.167 278.5,307.5C 277.833,307.5 277.167,307.5 276.5,307.5C 278.331,305.155 279.498,302.488 280,299.5C 280.5,292.508 280.666,285.508 280.5,278.5 Z"/></g>
<g><path style="opacity:1" fill="#fdd0b1" d="M 246.5,296.5 C 249.167,296.5 251.833,296.5 254.5,296.5C 256.607,297.468 258.941,297.802 261.5,297.5C 261.215,299.288 261.548,300.955 262.5,302.5C 264.261,303.035 265.594,304.035 266.5,305.5C 263.574,304.539 260.574,303.873 257.5,303.5C 255.449,299.273 252.116,297.44 247.5,298C 246.058,298.377 245.058,299.21 244.5,300.5C 242.833,301.167 241.167,301.833 239.5,302.5C 240.313,298.839 242.646,296.839 246.5,296.5 Z"/></g>
<g><path style="opacity:0.999" fill="#feeadc" d="M 188.5,299.5 C 191.833,300.833 195.166,302.166 198.5,303.5C 198.833,303.5 199.167,303.5 199.5,303.5C 201.581,306.296 204.414,307.963 208,308.5C 211.776,307.606 215.61,307.272 219.5,307.5C 220.167,307.5 220.833,307.5 221.5,307.5C 221.833,308.167 222.167,308.833 222.5,309.5C 223.295,312.423 224.628,315.09 226.5,317.5C 230.5,321.833 234.5,326.167 238.5,330.5C 241.438,331.489 244.438,332.156 247.5,332.5C 247.5,332.833 247.5,333.167 247.5,333.5C 247.167,333.5 246.833,333.5 246.5,333.5C 238.854,334.207 231.187,334.54 223.5,334.5C 223.5,334.167 223.5,333.833 223.5,333.5C 223.646,331.058 222.813,330.391 221,331.5C 217.769,328.013 214.269,327.013 210.5,328.5C 208.867,325.203 206.2,323.536 202.5,323.5C 201.241,318.907 198.241,315.907 193.5,314.5C 193.167,313.833 192.833,313.167 192.5,312.5C 192.542,307.649 191.209,303.315 188.5,299.5 Z"/></g>
<g><path style="opacity:1" fill="#fedbc3" d="M 257.5,303.5 C 260.574,303.873 263.574,304.539 266.5,305.5C 267.167,305.5 267.5,305.833 267.5,306.5C 270.287,307.477 273.287,307.81 276.5,307.5C 276.5,308.167 276.5,308.833 276.5,309.5C 274.956,309.703 273.622,310.37 272.5,311.5C 271.74,314.187 271.073,316.853 270.5,319.5C 270.167,319.5 269.833,319.5 269.5,319.5C 264.301,322.352 259.634,326.019 255.5,330.5C 251.154,330.666 246.821,330.499 242.5,330C 240.833,329 239.5,327.667 238.5,326C 232.745,321.734 227.411,316.234 222.5,309.5C 222.167,308.833 221.833,308.167 221.5,307.5C 221.833,307.5 222.167,307.5 222.5,307.5C 222.833,307.5 223.167,307.5 223.5,307.5C 224.449,308.152 225.615,308.486 227,308.5C 230.678,307.499 234.345,306.499 238,305.5C 238.333,305.833 238.667,306.167 239,306.5C 239.928,303.965 241.762,302.965 244.5,303.5C 244.5,302.5 244.5,301.5 244.5,300.5C 247.827,299.713 251.16,300.047 254.5,301.5C 254.291,302.086 253.957,302.586 253.5,303C 254.793,303.49 256.127,303.657 257.5,303.5 Z"/></g>
<g><path style="opacity:1" fill="#fed8bb" d="M 257.5,303.5 C 256.127,303.657 254.793,303.49 253.5,303C 253.957,302.586 254.291,302.086 254.5,301.5C 251.16,300.047 247.827,299.713 244.5,300.5C 245.058,299.21 246.058,298.377 247.5,298C 252.116,297.44 255.449,299.273 257.5,303.5 Z"/></g>
<g><path style="opacity:1" fill="#fbefe5" d="M 180.5,290.5 C 182.167,291.167 183.833,291.833 185.5,292.5C 186.651,294.779 187.651,297.112 188.5,299.5C 191.209,303.315 192.542,307.649 192.5,312.5C 189.282,307.697 187.115,302.364 186,296.5C 183.96,294.63 182.127,292.63 180.5,290.5 Z"/></g>
<g><path style="opacity:1" fill="#ffdabd" d="M 244.5,300.5 C 244.5,301.5 244.5,302.5 244.5,303.5C 241.762,302.965 239.928,303.965 239,306.5C 238.667,306.167 238.333,305.833 238,305.5C 234.345,306.499 230.678,307.499 227,308.5C 225.615,308.486 224.449,308.152 223.5,307.5C 229.291,307.013 234.624,305.346 239.5,302.5C 241.167,301.833 242.833,301.167 244.5,300.5 Z"/></g>
<g><path style="opacity:1" fill="#feeadd" d="M 310.5,299.5 C 308.5,302.513 307.5,305.846 307.5,309.5C 306.292,310.234 304.959,310.567 303.5,310.5C 303.326,312.861 302.993,315.194 302.5,317.5C 301.127,317.343 299.793,317.51 298.5,318C 298.335,319.117 298.002,320.284 297.5,321.5C 294.431,322.403 292.098,324.236 290.5,327C 288.382,327.26 286.716,328.26 285.5,330C 282.833,330.667 280.167,331.333 277.5,332C 276.619,332.708 275.953,333.542 275.5,334.5C 267.236,334.77 258.903,334.437 250.5,333.5C 249.5,333.5 248.5,333.5 247.5,333.5C 247.5,333.167 247.5,332.833 247.5,332.5C 250.553,332.889 253.22,332.223 255.5,330.5C 261.657,328.752 266.324,325.085 269.5,319.5C 269.833,319.5 270.167,319.5 270.5,319.5C 271.929,317.055 273.762,314.722 276,312.5C 276.483,311.552 276.649,310.552 276.5,309.5C 280.973,308.949 285.307,308.283 289.5,307.5C 290.167,307.5 290.833,307.5 291.5,307.5C 295.1,307.206 298.6,306.54 302,305.5C 302.419,306.672 303.085,307.672 304,308.5C 305.367,304.836 307.533,301.836 310.5,299.5 Z"/></g>
<g><path style="opacity:1" fill="#fbf0e9" d="M 312.5,298.5 C 311.609,302.609 309.942,306.276 307.5,309.5C 307.5,305.846 308.5,302.513 310.5,299.5C 310.842,298.662 311.508,298.328 312.5,298.5 Z"/></g>
<g><path style="opacity:1" fill="#fde3d1" d="M 199.5,303.5 C 206.098,305.705 212.765,307.038 219.5,307.5C 215.61,307.272 211.776,307.606 208,308.5C 204.414,307.963 201.581,306.296 199.5,303.5 Z"/></g>
<g><path style="opacity:1" fill="#fee1cd" d="M 289.5,307.5 C 285.307,308.283 280.973,308.949 276.5,309.5C 276.5,308.833 276.5,308.167 276.5,307.5C 277.167,307.5 277.833,307.5 278.5,307.5C 282.329,307.073 285.996,307.073 289.5,307.5 Z"/></g>
<g><path style="opacity:1" fill="#faeee6" d="M 307.5,309.5 C 306.617,312.704 304.95,315.371 302.5,317.5C 302.993,315.194 303.326,312.861 303.5,310.5C 304.959,310.567 306.292,310.234 307.5,309.5 Z"/></g>
<g><path style="opacity:1" fill="#fce2d1" d="M 276.5,309.5 C 276.649,310.552 276.483,311.552 276,312.5C 273.762,314.722 271.929,317.055 270.5,319.5C 271.073,316.853 271.74,314.187 272.5,311.5C 273.622,310.37 274.956,309.703 276.5,309.5 Z"/></g>
<g><path style="opacity:1" fill="#fbefe7" d="M 193.5,314.5 C 198.241,315.907 201.241,318.907 202.5,323.5C 206.2,323.536 208.867,325.203 210.5,328.5C 214.462,330.975 218.795,332.642 223.5,333.5C 223.5,333.833 223.5,334.167 223.5,334.5C 210.558,332.221 200.558,325.555 193.5,314.5 Z"/></g>
<g><path style="opacity:1" fill="#fce2d0" d="M 222.5,309.5 C 227.411,316.234 232.745,321.734 238.5,326C 239.5,327.667 240.833,329 242.5,330C 246.821,330.499 251.154,330.666 255.5,330.5C 253.22,332.223 250.553,332.889 247.5,332.5C 244.438,332.156 241.438,331.489 238.5,330.5C 234.5,326.167 230.5,321.833 226.5,317.5C 224.628,315.09 223.295,312.423 222.5,309.5 Z"/></g>
<g><path style="opacity:1" fill="#fee4d2" d="M 269.5,319.5 C 266.324,325.085 261.657,328.752 255.5,330.5C 259.634,326.019 264.301,322.352 269.5,319.5 Z"/></g>
<g><path style="opacity:1" fill="#fdeae2" d="M 223.5,333.5 C 218.795,332.642 214.462,330.975 210.5,328.5C 214.269,327.013 217.769,328.013 221,331.5C 222.813,330.391 223.646,331.058 223.5,333.5 Z"/></g>
<g><path style="opacity:0.982" fill="#fcefe6" d="M 302.5,317.5 C 295.873,326.768 286.873,332.434 275.5,334.5C 275.953,333.542 276.619,332.708 277.5,332C 280.167,331.333 282.833,330.667 285.5,330C 286.716,328.26 288.382,327.26 290.5,327C 292.098,324.236 294.431,322.403 297.5,321.5C 298.002,320.284 298.335,319.117 298.5,318C 299.793,317.51 301.127,317.343 302.5,317.5 Z"/></g>
<g><path style="opacity:0.625" fill="#fdf1e7" d="M 246.5,333.5 C 245.737,334.268 244.737,334.768 243.5,335C 236.654,335.821 229.987,335.654 223.5,334.5C 231.187,334.54 238.854,334.207 246.5,333.5 Z"/></g>
<g><path style="opacity:0.901" fill="#fef2eb" d="M 250.5,333.5 C 258.903,334.437 267.236,334.77 275.5,334.5C 267.055,337.295 258.721,336.961 250.5,333.5 Z"/></g>
</svg>
